<?xml version="1.0" encoding="UTF-8"?>
<svg width="31px" height="39px" viewBox="0 0 31 39" version="1.1" xmlns="http://www.w3.org/2000/svg" xmlns:xlink="http://www.w3.org/1999/xlink">
    <!-- Generator: Sketch 51.3 (57544) - http://www.bohemiancoding.com/sketch -->
    <title>jR</title>
    <desc>Created with Sketch.</desc>
    <defs></defs>
    <g id="Page-1" stroke="none" stroke-width="1" fill="none" fill-rule="evenodd">
        <g id="Portfolio-Home" transform="translate(-46.000000, -57.000000)" fill="#FFFFFF">
            <path d="M61.9857697,68.8266712 L61.9857697,60.7973887 L66.4544332,60.7973887 C68.4149178,60.7973887 70.2964603,61.7465985 70.2964603,64.6337784 C70.2964603,68.1147638 67.6701405,68.8266712 65.6710016,68.8266712 L61.9857697,68.8266712 Z M71.5900208,74.1269754 C71.1980328,73.2964168 70.5316531,72.2681061 69.6692795,71.5556495 C72.5313365,70.9623933 75.4320479,68.5498183 75.4320479,64.3173751 C75.4320479,59.4916758 72.0217521,57 67.0821585,57 L56.9285798,57 L56.9285798,68.8266712 L50.5778293,68.8266712 L50.5778293,72.544959 L56.9285798,72.544959 L56.9285798,83.6987239 L56.9285798,88.4848728 C56.9285798,90.8974478 55.9094109,92.1630609 53.9097275,92.1630609 C51.2834078,92.1630609 49.4105761,90.0273388 50.2337509,86.6260035 L46.3095153,87.1753148 C44.8978139,92.4355193 48.461094,96 54.0278684,96 C59.2413091,96 61.9857697,92.7563171 61.9857697,87.8125158 L61.9857697,83.6987239 L61.9857697,72.544959 L64.2593003,72.544959 C66.2192404,72.544959 67.3168069,76.0253951 68.2973214,78.3193189 C69.8652735,81.9980563 71.354828,83.8173751 74.5696742,83.8173751 C75.5104455,83.8173751 77,83.5800727 77,83.5800727 L77,79.7689512 C77,79.7689512 76.5296144,79.8623342 75.9808311,79.8623342 C73.5107621,79.8623342 72.6483885,76.3417984 71.5900208,74.1269754 Z" id="jR"></path>
        </g>
    </g>
</svg>