<?xml version="1.0" encoding="UTF-8"?>
<svg width="41px" height="30px" viewBox="0 0 41 30" version="1.1" xmlns="http://www.w3.org/2000/svg" xmlns:xlink="http://www.w3.org/1999/xlink">
    <!-- Generator: Sketch 51.3 (57544) - http://www.bohemiancoding.com/sketch -->
    <title>photo--grey</title>
    <desc>Created with Sketch.</desc>
    <defs></defs>
    <g id="Page-1" stroke="none" stroke-width="1" fill="none" fill-rule="evenodd">
        <g id="Portfolio-Home" transform="translate(-1085.000000, -342.000000)">
            <g id="photo--grey" transform="translate(1085.000000, 342.000000)">
                <rect id="Rectangle-4" fill="#FFFFFF" x="0" y="0" width="41" height="30" rx="3"></rect>
                <g id="photo" transform="translate(8.000000, 6.000000)">
                    <path d="M7,10.5 C7,7.46241151 9.46241151,5 12.5,5 C15.5375885,5 18,7.46241151 18,10.5 C18,13.5375885 15.5375885,16 12.5,16 C9.46241151,16 7,13.5375885 7,10.5 Z" id="Stroke-1" stroke="#B3B3B3"></path>
                    <path d="M21,7 C21,6.44771118 21.4477112,6 22,6 C22.5522888,6 23,6.44771118 23,7 C23,7.55228882 22.5522888,8 22,8 C21.4477112,8 21,7.55228882 21,7 Z" id="Stroke-1-Copy" fill="#B3B3B3"></path>
                    <path d="M7.13586141,3.25248307 L7.13586141,1.6324707 C7.13586141,0.730857133 7.87904543,0 8.79586592,0 L15.9762155,0 C16.8930359,0 17.63622,0.730857133 17.63622,1.6324707 L17.63622,3.25248307 C17.63622,3.70320823 18.007895,4.06871842 18.4662222,4.06871842 L23.3399955,4.06871842 C24.256816,4.06871842 25,4.79957556 25,5.70118913 L25,17.3675293 C25,18.2691429 24.256816,19 23.3399955,19 L1.66000452,19 C0.743184021,19 0,18.2691429 0,17.3675293 L0,5.70118913 C0,4.79957556 0.743184021,4.06871842 1.66000452,4.06871842 L6.30585915,4.06871842 C6.7641864,4.06871842 7.13586141,3.70320823 7.13586141,3.25248307 Z" id="Stroke-3" stroke="#B3B3B3"></path>
                </g>
            </g>
        </g>
    </g>
</svg>