<?xml version="1.0" encoding="UTF-8"?>
<svg width="103px" height="103px" viewBox="0 0 103 103" version="1.1" xmlns="http://www.w3.org/2000/svg" xmlns:xlink="http://www.w3.org/1999/xlink">
    <!-- Generator: Sketch 51.3 (57544) - http://www.bohemiancoding.com/sketch -->
    <title>logo</title>
    <desc>Created with Sketch.</desc>
    <defs>
        <circle id="path-1" cx="33.5" cy="33.5" r="33.5"></circle>
        <filter x="-41.8%" y="-38.8%" width="183.6%" height="183.6%" filterUnits="objectBoundingBox" id="filter-2">
            <feOffset dx="0" dy="2" in="SourceAlpha" result="shadowOffsetOuter1"></feOffset>
            <feGaussianBlur stdDeviation="9" in="shadowOffsetOuter1" result="shadowBlurOuter1"></feGaussianBlur>
            <feColorMatrix values="0 0 0 0 0   0 0 0 0 0   0 0 0 0 0  0 0 0 0.157495471 0" type="matrix" in="shadowBlurOuter1"></feColorMatrix>
        </filter>
    </defs>
    <g id="Page-1" stroke="none" stroke-width="1" fill="none" fill-rule="evenodd">
        <g id="Portfolio-Home" transform="translate(-11.000000, -26.000000)">
            <g id="logo" transform="translate(29.000000, 42.000000)">
                <g id="Oval">
                    <use fill="black" fill-opacity="1" filter="url(#filter-2)" xlink:href="#path-1"></use>
                    <use fill="#FFFFFF" fill-rule="evenodd" xlink:href="#path-1"></use>
                </g>
                <path d="M33.9857697,25.8266712 L33.9857697,17.7973887 L38.4544332,17.7973887 C40.4149178,17.7973887 42.2964603,18.7465985 42.2964603,21.6337784 C42.2964603,25.1147638 39.6701405,25.8266712 37.6710016,25.8266712 L33.9857697,25.8266712 Z M43.5900208,31.1269754 C43.1980328,30.2964168 42.5316531,29.2681061 41.6692795,28.5556495 C44.5313365,27.9623933 47.4320479,25.5498183 47.4320479,21.3173751 C47.4320479,16.4916758 44.0217521,14 39.0821585,14 L28.9285798,14 L28.9285798,25.8266712 L22.5778293,25.8266712 L22.5778293,29.544959 L28.9285798,29.544959 L28.9285798,40.6987239 L28.9285798,45.4848728 C28.9285798,47.8974478 27.9094109,49.1630609 25.9097275,49.1630609 C23.2834078,49.1630609 21.4105761,47.0273388 22.2337509,43.6260035 L18.3095153,44.1753148 C16.8978139,49.4355193 20.461094,53 26.0278684,53 C31.2413091,53 33.9857697,49.7563171 33.9857697,44.8125158 L33.9857697,40.6987239 L33.9857697,29.544959 L36.2593003,29.544959 C38.2192404,29.544959 39.3168069,33.0253951 40.2973214,35.3193189 C41.8652735,38.9980563 43.354828,40.8173751 46.5696742,40.8173751 C47.5104455,40.8173751 49,40.5800727 49,40.5800727 L49,36.7689512 C49,36.7689512 48.5296144,36.8623342 47.9808311,36.8623342 C45.5107621,36.8623342 44.6483885,33.3417984 43.5900208,31.1269754 Z" id="jR" fill="#0F81FF"></path>
            </g>
        </g>
    </g>
</svg>