<?xml version="1.0" encoding="UTF-8"?>
<svg width="41px" height="30px" viewBox="0 0 41 30" version="1.1" xmlns="http://www.w3.org/2000/svg" xmlns:xlink="http://www.w3.org/1999/xlink">
    <!-- Generator: Sketch 51.3 (57544) - http://www.bohemiancoding.com/sketch -->
    <title>other--grey</title>
    <desc>Created with Sketch.</desc>
    <defs></defs>
    <g id="Page-1" stroke="none" stroke-width="1" fill="none" fill-rule="evenodd">
        <g id="Portfolio-Home" transform="translate(-948.000000, -814.000000)">
            <g id="other--grey" transform="translate(948.000000, 814.000000)">
                <rect id="Rectangle-4" fill="#FFFFFF" x="0" y="0" width="41" height="30" rx="3"></rect>
                <g id="otherBlue-Copy" transform="translate(9.000000, 3.000000)" stroke="#B3B3B3">
                    <path d="M21.7729147,19.6301177 L19.6301177,21.7729147 C19.4477302,21.9553022 19.0937979,21.8969474 18.8393942,21.6425437 L3.23657152,6.03972096 C2.9821678,5.78531724 2.92381297,5.43138496 3.10620044,5.24899749 L5.24899749,3.10620044 C5.43138496,2.92381297 5.78531724,2.9821678 6.03972096,3.23657152 L21.6425437,18.8393942 C21.8969474,19.0937979 21.9553022,19.4477302 21.7729147,19.6301177 Z" id="Stroke-5"></path>
                    <path d="M4.83701622,2.69421918 L2.69421918,4.83701622 C2.5118317,5.01940369 2.22970197,5.03285141 2.06391045,4.86705989 L0.116092603,2.91924205 C-0.0496989153,2.75345053 -0.0363357429,2.47123625 0.14605173,2.28884877 L2.28884877,0.14605173 C2.47123625,-0.0363357429 2.75345053,-0.0496989153 2.91924205,0.116092603 L4.86705989,2.06391045 C5.03285141,2.22970197 5.01940369,2.5118317 4.83701622,2.69421918 Z" id="Stroke-7"></path>
                    <path d="M23.1656647,23.1656647 L19.3722672,22.0834032 C19.0062885,21.9789095 18.8757939,21.5214629 19.1373746,21.2598822 L21.2598822,19.1373746 C21.5214629,18.8757939 21.9789095,19.0062885 22.0834032,19.3722672 L23.1656647,23.1656647 Z" id="Stroke-9"></path>
                    <path d="M21,1.5 L24,1.5" id="Line-Copy" stroke-linecap="square"></path>
                    <path d="M16,1.5 L18,1.5" id="Line-Copy" stroke-linecap="square"></path>
                    <path d="M12,1.5 L14,1.5" id="Line-Copy" stroke-linecap="square"></path>
                    <path d="M22.5,3 L22.5,0" id="Line" stroke-linecap="square"></path>
                    <path d="M22.5,8 L22.5,6" id="Line-Copy-2" stroke-linecap="square"></path>
                    <path d="M22.5,12 L22.5,10" id="Line-Copy-2" stroke-linecap="square"></path>
                </g>
            </g>
        </g>
    </g>
</svg>