<svg xmlns="http://www.w3.org/2000/svg" viewBox="0 0 94.94 249.52"><defs><style>.cls-1{fill:#fff;stroke:#4478bd;stroke-miterlimit:10;}</style></defs><title>Asset 1</title><g id="Layer_2" data-name="Layer 2"><g id="Layer_1-2" data-name="Layer 1"><path class="cls-1" d="M11.05,249.52V215.33a6.13,6.13,0,0,1,0-9.27V178.94H83.89v27.12a6.13,6.13,0,0,1,0,9.27v34.19"/><path class="cls-1" d="M15.43,192h4.19a5.85,5.85,0,0,1,5.85,5.85v6.35a.4.4,0,0,1-.4.4H10a.4.4,0,0,1-.4-.4v-6.33A5.86,5.86,0,0,1,15.43,192Z"/><path class="cls-1" d="M17.58,73.59c3.43,0,8.75,14.91,8.75,28.13v91a1,1,0,0,1-1,1H9.69a1,1,0,0,1-1-1V101.72C8.71,88.59,14.14,73.59,17.58,73.59Z"/><line class="cls-1" x1="10.3" y1="88.38" x2="24.79" y2="88.38"/><path class="cls-1" d="M75.33,192h4.19a5.85,5.85,0,0,1,5.85,5.85v6.35a.4.4,0,0,1-.4.4H69.88a.4.4,0,0,1-.4-.4v-6.33A5.86,5.86,0,0,1,75.33,192Z"/><path class="cls-1" d="M77.47,73.59c3.44,0,8.76,14.91,8.76,28.13v91a1,1,0,0,1-1,1H69.59a1,1,0,0,1-1-1V101.72C68.61,88.59,74,73.59,77.47,73.59Z"/><line class="cls-1" x1="70.19" y1="88.38" x2="84.68" y2="88.38"/><path class="cls-1" d="M68.45,140h-42V37.39C26.49,13.7,42.23.5,47.47.5s21,13.2,21,36.89Z"/><line class="cls-1" x1="31.06" y1="17.5" x2="63.88" y2="17.5"/><line class="cls-1" x1="61.27" y1="40.95" x2="61.27" y2="53.1"/><line class="cls-1" x1="61.27" y1="28.42" x2="61.27" y2="35.52"/><path class="cls-1" d="M60.4,111.38c0,8.36,8.2,26.57,16.25,34.63s14.9,12.51,16.59,17.09a18.85,18.85,0,0,1,.84,10.21c-.74,2.12-33.68,2.6-33.68,2.6Z"/><line class="cls-1" x1="94.39" y1="169.08" x2="85.66" y2="169.08"/><path class="cls-1" d="M34.54,111.38c0,8.36-8.2,26.57-16.25,34.63S3.39,158.52,1.7,163.1a18.85,18.85,0,0,0-.84,10.21c.74,2.12,33.68,2.6,33.68,2.6Z"/><line class="cls-1" x1="0.54" y1="169.08" x2="9.26" y2="169.08"/><path class="cls-1" d="M51,170.94h9a3.56,3.56,0,0,1,3.56,3.56v11.69a2.46,2.46,0,0,1-2.46,2.46H47.47a0,0,0,0,1,0,0V174.51A3.57,3.57,0,0,1,51,170.94Z"/><path class="cls-1" d="M31.31,170.94H45a2.46,2.46,0,0,1,2.46,2.46v11.69a3.56,3.56,0,0,1-3.56,3.56h-9a3.57,3.57,0,0,1-3.57-3.57V170.94a0,0,0,0,1,0,0Z" transform="translate(78.78 359.59) rotate(-180)"/><path class="cls-1" d="M57.57,172.18H37.37a2.83,2.83,0,0,1-2.83-2.83V86.73c0-7.43,4.12-33.63,12.93-33.63S60.4,79.3,60.4,86.73v82.63A2.83,2.83,0,0,1,57.57,172.18Z"/><line class="cls-1" x1="43.71" y1="91.93" x2="60.4" y2="91.93"/><line class="cls-1" x1="34.54" y1="91.93" x2="38.64" y2="91.93"/><line class="cls-1" x1="34.54" y1="153.25" x2="51.57" y2="153.25"/><line class="cls-1" x1="53.75" y1="135.64" x2="53.75" y2="140.02"/><line class="cls-1" x1="53.75" y1="116.61" x2="53.75" y2="130.44"/><line class="cls-1" x1="40.09" y1="60.42" x2="55.28" y2="60.42"/><path class="cls-1" d="M41.73,77.35a7.05,7.05,0,0,1,11.43,0"/><path class="cls-1" d="M45.38,168.31h4.19a5.85,5.85,0,0,1,5.85,5.85v16.73a.4.4,0,0,1-.4.4H39.93a.4.4,0,0,1-.4-.4V174.16A5.86,5.86,0,0,1,45.38,168.31Z"/><path class="cls-1" d="M46.48,159.38h2a.9.9,0,0,1,.9.9v33.95a.06.06,0,0,1-.06.06H45.64a.06.06,0,0,1-.06-.06V160.28A.9.9,0,0,1,46.48,159.38Z"/><line class="cls-1" x1="41.22" y1="208.27" x2="41.22" y2="216.84"/><line class="cls-1" x1="46.71" y1="214.53" x2="46.71" y2="223.1"/><line class="cls-1" x1="17.67" y1="233.09" x2="17.67" y2="249.52"/><line class="cls-1" x1="19.97" y1="217.68" x2="19.97" y2="226.25"/><line class="cls-1" x1="78.57" y1="233.09" x2="78.57" y2="249.52"/><line class="cls-1" x1="76.27" y1="217.68" x2="76.27" y2="226.25"/></g></g></svg>