<?xml version="1.0" encoding="UTF-8"?>
<svg width="21px" height="15px" viewBox="0 0 21 15" version="1.1" xmlns="http://www.w3.org/2000/svg" xmlns:xlink="http://www.w3.org/1999/xlink">
    <!-- Generator: Sketch 51.3 (57544) - http://www.bohemiancoding.com/sketch -->
    <title>photo</title>
    <desc>Created with Sketch.</desc>
    <defs></defs>
    <g id="Page-1" stroke="none" stroke-width="1" fill="none" fill-rule="evenodd">
        <g id="Portfolio-Home-Copy-12" transform="translate(-906.000000, -31.000000)" stroke="#4B545E" stroke-width="2">
            <g id="photo" transform="translate(907.433594, 32.000000)">
                <path d="M5.52,7.18421053 C5.52,5.35778172 7.07803492,3.87719298 9,3.87719298 C10.9219651,3.87719298 12.48,5.35778172 12.48,7.18421053 C12.48,9.01063933 10.9219651,10.4912281 9,10.4912281 C7.07803492,10.4912281 5.52,9.01063933 5.52,7.18421053 Z" id="Stroke-1"></path>
                <path d="M5.13782021,2.22538316 L5.13782021,1.11695364 C5.13782021,0.500060144 5.67291271,0 6.33302347,0 L11.5028751,0 C12.1629859,0 12.6980784,0.500060144 12.6980784,1.11695364 L12.6980784,2.22538316 C12.6980784,2.53377406 12.9656844,2.78385997 13.29568,2.78385997 L16.8047967,2.78385997 C17.4649075,2.78385997 18,3.28392012 18,3.90081361 L18,11.8830464 C18,12.4999399 17.4649075,13 16.8047967,13 L1.19520325,13 C0.535092495,13 0,12.4999399 0,11.8830464 L0,3.90081361 C0,3.28392012 0.535092495,2.78385997 1.19520325,2.78385997 L4.54021859,2.78385997 C4.87021421,2.78385997 5.13782021,2.53377406 5.13782021,2.22538316 Z" id="Stroke-3"></path>
            </g>
        </g>
    </g>
</svg>